<svg xmlns="http://www.w3.org/2000/svg" width="1200" height="1400" viewBox="0 0 1200 1400">
<defs>
  <linearGradient id="sky" x1="0" y1="0" x2="1" y2="1"><stop stop-color="#08111f"/><stop offset=".48" stop-color="#18335d"/><stop offset="1" stop-color="#e5166f"/></linearGradient>
  <linearGradient id="pink" x1="0" y1="0" x2="1" y2="1"><stop stop-color="#ff4fa1"/><stop offset="1" stop-color="#e5166f"/></linearGradient>
  <filter id="blur"><feGaussianBlur stdDeviation="24"/></filter>
  <filter id="shadow" x="-20%" y="-20%" width="140%" height="150%"><feDropShadow dx="0" dy="32" stdDeviation="32" flood-color="#000" flood-opacity=".28"/></filter>
</defs>
<rect width="1200" height="1400" fill="url(#sky)"/>
<circle cx="1010" cy="160" r="160" fill="#fff" opacity=".12" filter="url(#blur)"/>
<circle cx="190" cy="1060" r="230" fill="#ff4fa1" opacity=".16" filter="url(#blur)"/>
<path d="M0 1090c170-80 300-110 480-68 240 56 405-65 720-10v388H0z" fill="#07101d" opacity=".58"/>
<g filter="url(#shadow)">
  <rect x="110" y="258" width="330" height="690" rx="28" fill="#14243f" opacity=".96"/>
  <rect x="460" y="170" width="475" height="778" rx="32" fill="#0d1b31" opacity=".98"/>
  <rect x="90" y="918" width="885" height="95" rx="28" fill="#07111e" opacity=".95"/>
  <g fill="#6ee7f9" opacity=".92">
    <rect x="150" y="315" width="92" height="78" rx="9"/><rect x="275" y="315" width="92" height="78" rx="9"/>
    <rect x="150" y="440" width="92" height="78" rx="9"/><rect x="275" y="440" width="92" height="78" rx="9"/>
    <rect x="150" y="565" width="92" height="78" rx="9"/><rect x="275" y="565" width="92" height="78" rx="9"/>
    <rect x="150" y="690" width="92" height="78" rx="9"/><rect x="275" y="690" width="92" height="78" rx="9"/>
  </g>
  <g fill="#fff" opacity=".88">
    <rect x="520" y="250" width="150" height="80" rx="11"/><rect x="710" y="250" width="150" height="80" rx="11"/>
    <rect x="520" y="390" width="150" height="80" rx="11"/><rect x="710" y="390" width="150" height="80" rx="11"/>
    <rect x="520" y="530" width="150" height="80" rx="11"/><rect x="710" y="530" width="150" height="80" rx="11"/>
    <rect x="520" y="670" width="150" height="80" rx="11"/><rect x="710" y="670" width="150" height="80" rx="11"/>
  </g>
</g>
<g transform="translate(125 1040)">
  <rect width="560" height="172" rx="32" fill="#ffffff" opacity=".13"/>
  <text x="32" y="62" font-size="46" font-weight="900" font-family="Inter,Arial" fill="#fff">JSP MASTER</text>
  <text x="34" y="108" font-size="24" font-weight="700" font-family="Inter,Arial" fill="#e5e7eb">Jakarta • Tomcat • MVC • JDBC</text>
  <text x="34" y="143" font-size="20" font-weight="600" font-family="Inter,Arial" fill="#fce7f3">Build real web apps from zero.</text>
</g>
<g transform="translate(720 1035)">
  <rect width="270" height="170" rx="28" fill="#fff" opacity=".12"/>
  <circle cx="58" cy="58" r="34" fill="url(#pink)"/>
  <text x="104" y="56" font-size="22" font-weight="900" font-family="Inter,Arial" fill="#fff">120 Lessons</text>
  <text x="104" y="92" font-size="18" font-weight="700" font-family="Inter,Arial" fill="#e5e7eb">Code + Videos</text>
  <text x="44" y="72" font-size="35" font-family="Arial" fill="#fff">{ }</text>
</g>
</svg>