<svg xmlns="http://www.w3.org/2000/svg" width="1800" height="560" viewBox="0 0 1800 560">
<defs>
  <linearGradient id="bg" x1="0" y1="0" x2="1" y2="1"><stop stop-color="#111827"/><stop offset=".45" stop-color="#243b78"/><stop offset="1" stop-color="#e5166f"/></linearGradient>
  <linearGradient id="glass" x1="0" y1="0" x2="1" y2="1"><stop stop-color="#ffffff" stop-opacity=".26"/><stop offset="1" stop-color="#ffffff" stop-opacity=".04"/></linearGradient>
  <filter id="shadow"><feDropShadow dx="0" dy="20" stdDeviation="20" flood-color="#000" flood-opacity=".3"/></filter>
</defs>
<rect width="1800" height="560" fill="url(#bg)"/>
<circle cx="1500" cy="90" r="180" fill="#fff" opacity=".11"/>
<circle cx="390" cy="510" r="240" fill="#ff4fa1" opacity=".15"/>
<g opacity=".16" stroke="#fff" stroke-width="3" fill="none">
  <path d="M0 420C260 310 430 480 650 350S1050 350 1260 250s360-20 540-110"/>
  <path d="M0 470C260 360 430 530 650 400s400 0 610-100 360-20 540-110"/>
</g>
<g transform="translate(1020 78)" filter="url(#shadow)">
  <rect width="640" height="390" rx="34" fill="#06101f" opacity=".76"/>
  <rect x="44" y="48" width="552" height="58" rx="14" fill="url(#glass)"/>
  <rect x="44" y="136" width="260" height="205" rx="24" fill="url(#glass)"/>
  <rect x="338" y="136" width="258" height="92" rx="24" fill="url(#glass)"/>
  <rect x="338" y="250" width="258" height="91" rx="24" fill="url(#glass)"/>
  <g fill="#fff" opacity=".8">
    <rect x="74" y="68" width="160" height="16" rx="8"/><rect x="260" y="68" width="110" height="16" rx="8"/><rect x="400" y="68" width="140" height="16" rx="8"/>
    <rect x="80" y="170" width="160" height="18" rx="9"/><rect x="80" y="210" width="190" height="12" rx="6"/><rect x="80" y="242" width="135" height="12" rx="6"/>
    <rect x="365" y="168" width="120" height="15" rx="8"/><rect x="365" y="286" width="150" height="15" rx="8"/>
  </g>
  <text x="80" y="315" font-family="Inter,Arial" font-size="42" font-weight="900" fill="#fff">&lt;/&gt;</text>
</g>
<g transform="translate(96 110)">
  <rect width="235" height="44" rx="22" fill="#fff" opacity=".16"/>
  <text x="26" y="30" fill="#fff" font-family="Inter,Arial" font-size="18" font-weight="800">MASTERCLASS DASHBOARD</text>
  <text x="0" y="118" fill="#fff" font-family="Inter,Arial" font-size="64" font-weight="900">Welcome Back, Developer 👋</text>
  <text x="4" y="175" fill="#e5e7eb" font-family="Inter,Arial" font-size="28" font-weight="700">Learn JSP, Servlets, JDBC, MVC and deployment in one clean system.</text>
  <g transform="translate(4 230)">
    <rect width="170" height="54" rx="18" fill="#e5166f"/>
    <text x="24" y="36" fill="#fff" font-family="Inter,Arial" font-size="18" font-weight="900">Start Learning</text>
    <rect x="190" width="195" height="54" rx="18" fill="#fff" opacity=".14"/>
    <text x="217" y="36" fill="#fff" font-family="Inter,Arial" font-size="18" font-weight="900">GitHub Ready</text>
  </g>
</g>
</svg>