<svg xmlns="http://www.w3.org/2000/svg" width="1200" height="520" viewBox="0 0 1200 520">
<defs><marker id="arrow" markerWidth="12" markerHeight="12" refX="9" refY="3" orient="auto" markerUnits="strokeWidth"><path d="M0,0 L0,6 L9,3 z" fill="#153e75"/></marker><filter id="shadow" x="-20%" y="-20%" width="140%" height="140%"><feDropShadow dx="0" dy="10" stdDeviation="10" flood-color="#000" flood-opacity=".18"/></filter></defs>
<rect width="1200" height="520" rx="34" fill="#ffffff"/><rect x="24" y="24" width="1152" height="472" rx="30" fill="#f2f7ff" stroke="#d5e5fb" stroke-width="3"/>
<text x="600" y="76" text-anchor="middle" font-family="Arial" font-size="42" font-weight="900" fill="#0b2852">File Upload Flow</text>
<g filter="url(#shadow)"><rect x="75" y="185" width="150" height="92" rx="22" fill="#0b5ed7" opacity="0.96"/><text x="150" y="222" fill="white" text-anchor="middle" font-family="Arial" font-size="22" font-weight="700">HTML Form</text><path d="M 228 230 C 210.0 145, 210.0 260, 332 155" fill="none" stroke="#153e75" stroke-width="6" marker-end="url(#arrow)" opacity=".85"/><rect x="335" y="110" width="150" height="92" rx="22" fill="#087f5b" opacity="0.96"/><text x="410" y="147" fill="white" text-anchor="middle" font-family="Arial" font-size="22" font-weight="700">multipart/form</text><text x="410" y="174" fill="white" text-anchor="middle" font-family="Arial" font-size="20" font-weight="700">-data</text><path d="M 488 155 C 470.0 70, 470.0 335, 592 230" fill="none" stroke="#153e75" stroke-width="6" marker-end="url(#arrow)" opacity=".85"/><rect x="595" y="185" width="150" height="92" rx="22" fill="#f59f00" opacity="0.96"/><text x="670" y="222" fill="white" text-anchor="middle" font-family="Arial" font-size="22" font-weight="700">Servlet @Multi</text><text x="670" y="249" fill="white" text-anchor="middle" font-family="Arial" font-size="20" font-weight="700">partConfig</text><path d="M 748 230 C 730.0 145, 730.0 260, 852 155" fill="none" stroke="#153e75" stroke-width="6" marker-end="url(#arrow)" opacity=".85"/><rect x="855" y="110" width="150" height="92" rx="22" fill="#7048e8" opacity="0.96"/><text x="930" y="147" fill="white" text-anchor="middle" font-family="Arial" font-size="22" font-weight="700">Save File</text><path d="M 1008 155 C 990.0 70, 990.0 335, 1112 230" fill="none" stroke="#153e75" stroke-width="6" marker-end="url(#arrow)" opacity=".85"/><rect x="1115" y="185" width="150" height="92" rx="22" fill="#0c8599" opacity="0.96"/><text x="1190" y="222" fill="white" text-anchor="middle" font-family="Arial" font-size="22" font-weight="700">DB Path</text></g>
<text x="600" y="466" text-anchor="middle" font-family="Arial" font-size="22" fill="#52677f">Jifunze kwa kuona flow kwanza, kisha andika code hatua kwa hatua.</text>
</svg>